# xmcd CD database file
#
# Track frame offsets:
#	150
#	21026
#	39692
#	52147
#	69673
#	80208
#	100210
#	122300
#	141883
#	157054
#
# Disc length: 2360 seconds
#
# Revision: 0
# Processed by: cddbd v1.5.2PL0 Copyright (c) Steve Scherf et al.
# Submitted via: CDex 1.70beta2
#
DISCID=8c09360a
DTITLE=Blue Shaddy - Bury My Ghost
DYEAR=2007
DGENRE=Blues
TTITLE0=Bury My Ghost
TTITLE1=West Australian Sun
TTITLE2=Wagtail
TTITLE3=Mother Earth
TTITLE4=Moonshine
TTITLE5=Out Of Place
TTITLE6=Freedom
TTITLE7=Hell's Fire
TTITLE8=Duke Of Orleans
TTITLE9=Wilderbeast
EXTD=YEAR: 2007
EXTT0=
EXTT1=
EXTT2=
EXTT3=
EXTT4=
EXTT5=
EXTT6=
EXTT7=
EXTT8=
EXTT9=
PLAYORDER=
